<svg width="32" height="32" viewBox="0 0 32 32" fill="none" xmlns="http://www.w3.org/2000/svg">
<rect width="32" height="32" rx="16" fill="black"/>
<path d="M16 8C11.5808 8 8 11.5808 8 16C8 20.4192 11.5808 24 16 24C20.4192 24 24 20.4192 24 16C24 11.5808 20.4192 8 16 8ZM15.8346 19.6923C15.3808 19.6923 15.0115 19.3462 15.0115 18.9C15.0115 18.4577 15.3808 18.1077 15.8346 18.1077C16.2923 18.1077 16.6615 18.4538 16.6615 18.9C16.6615 19.3462 16.2962 19.6923 15.8346 19.6923ZM17.3808 15.9654C16.7115 16.3538 16.4846 16.6385 16.4846 17.1308V17.4346H15.15L15.1385 17.1038C15.0731 16.3115 15.35 15.8192 16.0462 15.4115C16.6962 15.0231 16.9692 14.7769 16.9692 14.3C16.9692 13.8231 16.5077 13.4731 15.9346 13.4731C15.3538 13.4731 14.9346 13.85 14.9038 14.4192H13.5385C13.5654 13.1808 14.4808 12.3038 16.0269 12.3038C17.4692 12.3038 18.4615 13.1038 18.4615 14.2538C18.4615 15.0192 18.0923 15.5462 17.3808 15.9654Z" fill="#F1C34E"/>
</svg>
