<svg width="24" height="24" viewBox="0 0 24 24" fill="none" xmlns="http://www.w3.org/2000/svg">
<path d="M10.4935 20.5C11.4584 20.5 12.2406 19.7165 12.2406 18.75C12.2406 17.7835 11.4584 17 10.4935 17C9.52856 17 8.74634 17.7835 8.74634 18.75C8.74634 19.7165 9.52856 20.5 10.4935 20.5Z" fill="white"/>
<path d="M17.4818 20.5C18.4467 20.5 19.2289 19.7165 19.2289 18.75C19.2289 17.7835 18.4467 17 17.4818 17C16.5168 17 15.7346 17.7835 15.7346 18.75C15.7346 19.7165 16.5168 20.5 17.4818 20.5Z" fill="white"/>
<path d="M21.4232 5.54334C21.3126 5.41034 21.1483 5.33334 20.976 5.33334H7.28765L6.78098 3.43284C6.71342 3.17733 6.4828 3 6.2184 3H3.5045C3.18303 3 2.92212 3.26133 2.92212 3.58334C2.92212 3.90534 3.18303 4.16667 3.5045 4.16667H5.77113L8.76574 15.4006C8.83329 15.6561 9.06392 15.8334 9.32832 15.8334H18.6464C18.9679 15.8334 19.2288 15.5721 19.2288 15.2501C19.2288 14.9281 18.9679 14.6667 18.6464 14.6667H9.77559L9.44829 13.4394L19.8403 12.9155C20.1094 12.9015 20.3353 12.7044 20.3843 12.4384L21.549 6.02168C21.5805 5.85018 21.5339 5.67518 21.4232 5.54334ZM16.3169 10H12.8226C12.5011 10 12.2402 9.73869 12.2402 9.41669C12.2402 9.09469 12.5011 8.83336 12.8226 8.83336H16.3169C16.6384 8.83336 16.8993 9.09469 16.8993 9.41669C16.8993 9.73869 16.6384 10 16.3169 10Z" fill="white"/>
</svg>
