<svg width="15" height="10" viewBox="0 0 15 10" fill="none" xmlns="http://www.w3.org/2000/svg">
<path d="M13.8908 9.01072H0.243621C0.109038 9.01072 -9.15527e-05 8.90779 -9.15527e-05 8.78086V0.506318C-9.15527e-05 0.379385 0.109038 0.276459 0.243621 0.276459H13.8909C14.0255 0.276459 14.1346 0.379385 14.1346 0.506318V8.78086C14.1346 8.90782 14.0254 9.01072 13.8908 9.01072Z" fill="#F5F5F5"/>
<path d="M14.1346 0.948357H-3.05176e-05V0.506318C-3.05176e-05 0.379385 0.109099 0.276459 0.243682 0.276459H13.8909C14.0255 0.276459 14.1346 0.379385 14.1346 0.506318L14.1346 0.948357Z" fill="#FF4B55"/>
<path d="M14.1346 2.96298H-3.05176e-05V3.63485H14.1346V2.96298Z" fill="#FF4B55"/>
<path d="M14.1346 1.61728H-3.05176e-05V2.28915H14.1346V1.61728Z" fill="#FF4B55"/>
<path d="M14.1346 4.97863H0.243682C0.109099 4.97863 -3.05176e-05 4.8757 -3.05176e-05 4.74877V4.30673H14.1346V4.97863Z" fill="#FF4B55"/>
<path d="M14.1346 6.99423H-3.05176e-05V7.6661H14.1346V6.99423Z" fill="#FF4B55"/>
<path d="M13.8909 9.00888H0.243682C0.109099 9.00888 -3.05176e-05 8.90595 -3.05176e-05 8.77902V8.33701H14.1346V8.77905C14.1346 8.90598 14.0255 9.00888 13.8909 9.00888Z" fill="#FF4B55"/>
<path d="M14.1346 5.64951H-3.05176e-05V6.32138H14.1346V5.64951Z" fill="#FF4B55"/>
<path d="M6.33612 0.276459H0.243621C0.109038 0.276459 -9.15527e-05 0.379359 -9.15527e-05 0.506292V4.74963C-9.15527e-05 4.87656 0.109038 4.97949 0.243621 4.97949H6.33615C6.47074 4.97949 6.57986 4.87656 6.57986 4.74963V0.506292C6.57984 0.379359 6.47071 0.276459 6.33612 0.276459Z" fill="#41479B"/>
<path d="M0.685375 0.80202L0.739319 0.954599L0.909846 0.955823C0.931931 0.956005 0.941069 0.982564 0.923318 0.994931L0.78614 1.09049L0.837599 1.24382C0.84428 1.26366 0.820289 1.28012 0.802317 1.26799L0.663594 1.17449L0.52487 1.26801C0.506898 1.28012 0.482963 1.26369 0.489588 1.24385L0.541047 1.09052L0.403869 0.994957C0.386118 0.982564 0.395256 0.956031 0.417341 0.955849L0.587868 0.954625L0.641812 0.802046C0.648769 0.782257 0.678363 0.782257 0.685375 0.80202Z" fill="#F5F5F5"/>
<path d="M0.685375 1.60083L0.739319 1.75341L0.909846 1.75463C0.931931 1.75481 0.941069 1.78137 0.923318 1.79374L0.78614 1.8893L0.837599 2.04263C0.84428 2.06247 0.820289 2.07893 0.802317 2.0668L0.663594 1.97329L0.52487 2.06682C0.506898 2.07893 0.482963 2.0625 0.489588 2.04266L0.541047 1.88932L0.403869 1.79377C0.386118 1.78137 0.395256 1.75484 0.417341 1.75466L0.587868 1.75343L0.641812 1.60085C0.648769 1.58109 0.678363 1.58109 0.685375 1.60083Z" fill="#F5F5F5"/>
<path d="M0.685375 2.39868L0.739319 2.55126L0.909846 2.55248C0.931931 2.55267 0.941069 2.57922 0.923318 2.59159L0.78614 2.68715L0.837599 2.84048C0.84428 2.86032 0.820289 2.87678 0.802317 2.86465L0.663594 2.77115L0.52487 2.86467C0.506898 2.87678 0.482963 2.86035 0.489588 2.84051L0.541047 2.68718L0.403869 2.59162C0.386118 2.57922 0.395256 2.55269 0.417341 2.55251L0.587868 2.55129L0.641812 2.39871C0.648769 2.37894 0.678363 2.37894 0.685375 2.39868Z" fill="#F5F5F5"/>
<path d="M0.685375 3.19753L0.739319 3.35011L0.909846 3.35133C0.931931 3.35151 0.941069 3.37807 0.923318 3.39044L0.78614 3.486L0.837599 3.63933C0.84428 3.65917 0.820289 3.67563 0.802317 3.66349L0.663594 3.56999L0.52487 3.66352C0.506898 3.67563 0.482963 3.6592 0.489588 3.63936L0.541047 3.48602L0.403869 3.39047C0.386118 3.37807 0.395256 3.35154 0.417341 3.35136L0.587868 3.35013L0.641812 3.19755C0.648769 3.17776 0.678363 3.17776 0.685375 3.19753Z" fill="#F5F5F5"/>
<path d="M0.685375 3.9954L0.739319 4.14798L0.909846 4.1492C0.931931 4.14938 0.941069 4.17594 0.923318 4.18831L0.78614 4.28387L0.837599 4.4372C0.84428 4.45704 0.820289 4.4735 0.802317 4.46137L0.663594 4.36787L0.52487 4.46139C0.506898 4.4735 0.482963 4.45707 0.489588 4.43723L0.541047 4.28389L0.403869 4.18834C0.386118 4.17594 0.395256 4.14941 0.417341 4.14923L0.587868 4.148L0.641812 3.99542C0.648769 3.97561 0.678363 3.97561 0.685375 3.9954Z" fill="#F5F5F5"/>
<path d="M1.34163 1.19556L1.39557 1.34814L1.5661 1.34936C1.58818 1.34954 1.59732 1.3761 1.57957 1.38847L1.44239 1.48403L1.49385 1.63736C1.50053 1.6572 1.47654 1.67366 1.45857 1.66153L1.31984 1.568L1.18112 1.66153C1.16315 1.67363 1.13921 1.6572 1.14584 1.63736L1.1973 1.48403L1.06012 1.38847C1.04237 1.37608 1.05151 1.34954 1.07359 1.34936L1.24412 1.34814L1.29806 1.19556C1.30499 1.17582 1.33464 1.17582 1.34163 1.19556Z" fill="#F5F5F5"/>
<path d="M1.34163 1.99245L1.39557 2.14503L1.5661 2.14626C1.58818 2.14644 1.59732 2.173 1.57957 2.18536L1.44239 2.28092L1.49385 2.43426C1.50053 2.4541 1.47654 2.47055 1.45857 2.45842L1.31984 2.36489L1.18112 2.45842C1.16315 2.47053 1.13921 2.45412 1.14584 2.43426L1.1973 2.28092L1.06012 2.18536C1.04237 2.17297 1.05151 2.14644 1.07359 2.14626L1.24412 2.14503L1.29806 1.99245C1.30499 1.97269 1.33464 1.97269 1.34163 1.99245Z" fill="#F5F5F5"/>
<path d="M1.34163 2.79128L1.39557 2.94386L1.5661 2.94508C1.58818 2.94527 1.59732 2.97182 1.57957 2.98419L1.44239 3.07975L1.49385 3.23308C1.50053 3.25293 1.47654 3.26938 1.45857 3.25725L1.31984 3.16372L1.18112 3.25725C1.16315 3.26936 1.13921 3.25293 1.14584 3.23308L1.1973 3.07975L1.06012 2.98419C1.04237 2.9718 1.05151 2.94527 1.07359 2.94508L1.24412 2.94386L1.29806 2.79128C1.30499 2.77152 1.33464 2.77152 1.34163 2.79128Z" fill="#F5F5F5"/>
<path d="M1.34163 3.58814L1.39557 3.74072L1.5661 3.74194C1.58818 3.74212 1.59732 3.76868 1.57957 3.78105L1.44239 3.87661L1.49385 4.02994C1.50053 4.04978 1.47654 4.06624 1.45857 4.0541L1.31984 3.96058L1.18112 4.0541C1.16315 4.06621 1.13921 4.04978 1.14584 4.02994L1.1973 3.87661L1.06012 3.78105C1.04237 3.76865 1.05151 3.74212 1.07359 3.74194L1.24412 3.74072L1.29806 3.58814C1.30499 3.5684 1.33464 3.5684 1.34163 3.58814Z" fill="#F5F5F5"/>
<path d="M1.99788 0.802023L2.05182 0.954603L2.22235 0.955826C2.24443 0.956009 2.25357 0.982567 2.23582 0.994935L2.09864 1.09049L2.1501 1.24383C2.15678 1.26367 2.13279 1.28012 2.11482 1.26799L1.97609 1.17446L1.83737 1.26799C1.8194 1.2801 1.79546 1.26367 1.80209 1.24383L1.85355 1.09049L1.71637 0.994935C1.69862 0.982541 1.70776 0.956009 1.72984 0.955826L1.90037 0.954603L1.95431 0.802023C1.96127 0.78226 1.99089 0.78226 1.99788 0.802023Z" fill="#F5F5F5"/>
<path d="M1.99788 1.60083L2.05182 1.75341L2.22235 1.75463C2.24443 1.75482 2.25357 1.78138 2.23582 1.79374L2.09864 1.8893L2.1501 2.04264C2.15678 2.06248 2.13279 2.07893 2.11482 2.0668L1.97609 1.97327L1.83737 2.0668C1.8194 2.07891 1.79546 2.06248 1.80209 2.04264L1.85355 1.8893L1.71637 1.79374C1.69862 1.78135 1.70776 1.75482 1.72984 1.75463L1.90037 1.75341L1.95431 1.60083C1.96127 1.58109 1.99089 1.58109 1.99788 1.60083Z" fill="#F5F5F5"/>
<path d="M1.99788 2.39868L2.05182 2.55126L2.22235 2.55249C2.24443 2.55267 2.25357 2.57923 2.23582 2.5916L2.09864 2.68715L2.1501 2.84049C2.15678 2.86033 2.13279 2.87678 2.11482 2.86465L1.97609 2.77112L1.83737 2.86465C1.8194 2.87676 1.79546 2.86033 1.80209 2.84049L1.85355 2.68715L1.71637 2.5916C1.69862 2.5792 1.70776 2.55267 1.72984 2.55249L1.90037 2.55126L1.95431 2.39868C1.96127 2.37895 1.99089 2.37895 1.99788 2.39868Z" fill="#F5F5F5"/>
<path d="M1.99788 3.19753L2.05182 3.35011L2.22235 3.35133C2.24443 3.35152 2.25357 3.37807 2.23582 3.39044L2.09864 3.486L2.1501 3.63933C2.15678 3.65918 2.13279 3.67563 2.11482 3.6635L1.97609 3.56997L1.83737 3.6635C1.8194 3.67561 1.79546 3.65918 1.80209 3.63933L1.85355 3.486L1.71637 3.39044C1.69862 3.37805 1.70776 3.35152 1.72984 3.35133L1.90037 3.35011L1.95431 3.19753C1.96127 3.17777 1.99089 3.17777 1.99788 3.19753Z" fill="#F5F5F5"/>
<path d="M1.99788 3.9954L2.05182 4.14798L2.22235 4.14921C2.24443 4.14939 2.25357 4.17595 2.23582 4.18831L2.09864 4.28387L2.1501 4.43721C2.15678 4.45705 2.13279 4.4735 2.11482 4.46137L1.97609 4.36784L1.83737 4.46137C1.8194 4.47348 1.79546 4.45705 1.80209 4.43721L1.85355 4.28387L1.71637 4.18831C1.69862 4.17592 1.70776 4.14939 1.72984 4.14921L1.90037 4.14798L1.95431 3.9954C1.96127 3.97561 1.99089 3.97561 1.99788 3.9954Z" fill="#F5F5F5"/>
<path d="M2.65803 1.19556L2.71198 1.34814L2.8825 1.34936C2.90459 1.34954 2.91373 1.3761 2.89597 1.38847L2.7588 1.48403L2.81026 1.63736C2.81694 1.6572 2.79295 1.67366 2.77497 1.66153L2.63625 1.568L2.49753 1.66153C2.47955 1.67363 2.45562 1.6572 2.46224 1.63736L2.5137 1.48403L2.37653 1.38847C2.35877 1.37608 2.36791 1.34954 2.39 1.34936L2.56052 1.34814L2.61447 1.19556C2.6214 1.17582 2.65105 1.17582 2.65803 1.19556Z" fill="#F5F5F5"/>
<path d="M2.65803 1.99245L2.71198 2.14503L2.8825 2.14626C2.90459 2.14644 2.91373 2.173 2.89597 2.18536L2.7588 2.28092L2.81026 2.43426C2.81694 2.4541 2.79295 2.47055 2.77497 2.45842L2.63625 2.36489L2.49753 2.45842C2.47955 2.47053 2.45562 2.45412 2.46224 2.43426L2.5137 2.28092L2.37653 2.18536C2.35877 2.17297 2.36791 2.14644 2.39 2.14626L2.56052 2.14503L2.61447 1.99245C2.6214 1.97269 2.65105 1.97269 2.65803 1.99245Z" fill="#F5F5F5"/>
<path d="M2.65803 2.79128L2.71198 2.94386L2.8825 2.94508C2.90459 2.94527 2.91373 2.97182 2.89597 2.98419L2.7588 3.07975L2.81026 3.23308C2.81694 3.25293 2.79295 3.26938 2.77497 3.25725L2.63625 3.16372L2.49753 3.25725C2.47955 3.26936 2.45562 3.25293 2.46224 3.23308L2.5137 3.07975L2.37653 2.98419C2.35877 2.9718 2.36791 2.94527 2.39 2.94508L2.56052 2.94386L2.61447 2.79128C2.6214 2.77152 2.65105 2.77152 2.65803 2.79128Z" fill="#F5F5F5"/>
<path d="M2.65803 3.58814L2.71198 3.74072L2.8825 3.74194C2.90459 3.74212 2.91373 3.76868 2.89597 3.78105L2.7588 3.87661L2.81026 4.02994C2.81694 4.04978 2.79295 4.06624 2.77497 4.0541L2.63625 3.96058L2.49753 4.0541C2.47955 4.06621 2.45562 4.04978 2.46224 4.02994L2.5137 3.87661L2.37653 3.78105C2.35877 3.76865 2.36791 3.74212 2.39 3.74194L2.56052 3.74072L2.61447 3.58814C2.6214 3.5684 2.65105 3.5684 2.65803 3.58814Z" fill="#F5F5F5"/>
<path d="M3.31431 0.802023L3.36825 0.954603L3.53878 0.955826C3.56086 0.956009 3.57 0.982567 3.55225 0.994935L3.41507 1.09049L3.46653 1.24383C3.47321 1.26367 3.44922 1.28012 3.43125 1.26799L3.2925 1.17446L3.15378 1.26799C3.1358 1.2801 3.11187 1.26367 3.11849 1.24383L3.16995 1.09049L3.03278 0.994935C3.01502 0.982541 3.02416 0.956009 3.04625 0.955826L3.21677 0.954603L3.27072 0.802023C3.2777 0.78226 3.30732 0.78226 3.31431 0.802023Z" fill="#F5F5F5"/>
<path d="M3.31431 1.60083L3.36825 1.75341L3.53878 1.75463C3.56086 1.75482 3.57 1.78138 3.55225 1.79374L3.41507 1.8893L3.46653 2.04264C3.47321 2.06248 3.44922 2.07893 3.43125 2.0668L3.2925 1.97327L3.15378 2.0668C3.1358 2.07891 3.11187 2.06248 3.11849 2.04264L3.16995 1.8893L3.03278 1.79374C3.01502 1.78135 3.02416 1.75482 3.04625 1.75463L3.21677 1.75341L3.27072 1.60083C3.2777 1.58109 3.30732 1.58109 3.31431 1.60083Z" fill="#F5F5F5"/>
<path d="M3.31431 2.39868L3.36825 2.55126L3.53878 2.55249C3.56086 2.55267 3.57 2.57923 3.55225 2.5916L3.41507 2.68715L3.46653 2.84049C3.47321 2.86033 3.44922 2.87678 3.43125 2.86465L3.2925 2.77112L3.15378 2.86465C3.1358 2.87676 3.11187 2.86033 3.11849 2.84049L3.16995 2.68715L3.03278 2.5916C3.01502 2.5792 3.02416 2.55267 3.04625 2.55249L3.21677 2.55126L3.27072 2.39868C3.2777 2.37895 3.30732 2.37895 3.31431 2.39868Z" fill="#F5F5F5"/>
<path d="M3.31431 3.19753L3.36825 3.35011L3.53878 3.35133C3.56086 3.35152 3.57 3.37807 3.55225 3.39044L3.41507 3.486L3.46653 3.63933C3.47321 3.65918 3.44922 3.67563 3.43125 3.6635L3.2925 3.56997L3.15378 3.6635C3.1358 3.67561 3.11187 3.65918 3.11849 3.63933L3.16995 3.486L3.03278 3.39044C3.01502 3.37805 3.02416 3.35152 3.04625 3.35133L3.21677 3.35011L3.27072 3.19753C3.2777 3.17777 3.30732 3.17777 3.31431 3.19753Z" fill="#F5F5F5"/>
<path d="M3.31431 3.9954L3.36825 4.14798L3.53878 4.14921C3.56086 4.14939 3.57 4.17595 3.55225 4.18831L3.41507 4.28387L3.46653 4.43721C3.47321 4.45705 3.44922 4.4735 3.43125 4.46137L3.2925 4.36784L3.15378 4.46137C3.1358 4.47348 3.11187 4.45705 3.11849 4.43721L3.16995 4.28387L3.03278 4.18831C3.01502 4.17592 3.02416 4.14939 3.04625 4.14921L3.21677 4.14798L3.27072 3.9954C3.2777 3.97561 3.30732 3.97561 3.31431 3.9954Z" fill="#F5F5F5"/>
<path d="M3.97053 1.19556L4.02448 1.34814L4.195 1.34936C4.21709 1.34954 4.22623 1.3761 4.20847 1.38847L4.0713 1.48403L4.12276 1.63736C4.12944 1.6572 4.10545 1.67366 4.08747 1.66153L3.94875 1.568L3.81003 1.66153C3.79205 1.67363 3.76812 1.6572 3.77474 1.63736L3.8262 1.48403L3.68903 1.38847C3.67127 1.37608 3.68041 1.34954 3.7025 1.34936L3.87302 1.34814L3.92697 1.19556C3.93395 1.17582 3.96355 1.17582 3.97053 1.19556Z" fill="#F5F5F5"/>
<path d="M3.97053 1.99245L4.02448 2.14503L4.195 2.14626C4.21709 2.14644 4.22623 2.173 4.20847 2.18536L4.0713 2.28092L4.12276 2.43426C4.12944 2.4541 4.10545 2.47055 4.08747 2.45842L3.94875 2.36489L3.81003 2.45842C3.79205 2.47053 3.76812 2.45412 3.77474 2.43426L3.8262 2.28092L3.68903 2.18536C3.67127 2.17297 3.68041 2.14644 3.7025 2.14626L3.87302 2.14503L3.92697 1.99245C3.93395 1.97269 3.96355 1.97269 3.97053 1.99245Z" fill="#F5F5F5"/>
<path d="M3.97053 2.79128L4.02448 2.94386L4.195 2.94508C4.21709 2.94527 4.22623 2.97182 4.20847 2.98419L4.0713 3.07975L4.12276 3.23308C4.12944 3.25293 4.10545 3.26938 4.08747 3.25725L3.94875 3.16372L3.81003 3.25725C3.79205 3.26936 3.76812 3.25293 3.77474 3.23308L3.8262 3.07975L3.68903 2.98419C3.67127 2.9718 3.68041 2.94527 3.7025 2.94508L3.87302 2.94386L3.92697 2.79128C3.93395 2.77152 3.96355 2.77152 3.97053 2.79128Z" fill="#F5F5F5"/>
<path d="M3.97053 3.58814L4.02448 3.74072L4.195 3.74194C4.21709 3.74212 4.22623 3.76868 4.20847 3.78105L4.0713 3.87661L4.12276 4.02994C4.12944 4.04978 4.10545 4.06624 4.08747 4.0541L3.94875 3.96058L3.81003 4.0541C3.79205 4.06621 3.76812 4.04978 3.77474 4.02994L3.8262 3.87661L3.68903 3.78105C3.67127 3.76865 3.68041 3.74212 3.7025 3.74194L3.87302 3.74072L3.92697 3.58814C3.93395 3.5684 3.96355 3.5684 3.97053 3.58814Z" fill="#F5F5F5"/>
<path d="M4.62678 0.802023L4.68073 0.954603L4.85125 0.955826C4.87334 0.956009 4.88248 0.982567 4.86472 0.994935L4.72755 1.09049L4.77901 1.24383C4.78569 1.26367 4.7617 1.28012 4.74372 1.26799L4.605 1.17446L4.46628 1.26799C4.4483 1.2801 4.42437 1.26367 4.43099 1.24383L4.48245 1.09049L4.34528 0.994935C4.32752 0.982541 4.33666 0.956009 4.35875 0.955826L4.52927 0.954603L4.58322 0.802023C4.59015 0.78226 4.6198 0.78226 4.62678 0.802023Z" fill="#F5F5F5"/>
<path d="M4.62678 1.60083L4.68073 1.75341L4.85125 1.75463C4.87334 1.75482 4.88248 1.78138 4.86472 1.79374L4.72755 1.8893L4.77901 2.04264C4.78569 2.06248 4.7617 2.07893 4.74372 2.0668L4.605 1.97327L4.46628 2.0668C4.4483 2.07891 4.42437 2.06248 4.43099 2.04264L4.48245 1.8893L4.34528 1.79374C4.32752 1.78135 4.33666 1.75482 4.35875 1.75463L4.52927 1.75341L4.58322 1.60083C4.59015 1.58109 4.6198 1.58109 4.62678 1.60083Z" fill="#F5F5F5"/>
<path d="M4.62678 2.39868L4.68073 2.55126L4.85125 2.55249C4.87334 2.55267 4.88248 2.57923 4.86472 2.5916L4.72755 2.68715L4.77901 2.84049C4.78569 2.86033 4.7617 2.87678 4.74372 2.86465L4.605 2.77112L4.46628 2.86465C4.4483 2.87676 4.42437 2.86033 4.43099 2.84049L4.48245 2.68715L4.34528 2.5916C4.32752 2.5792 4.33666 2.55267 4.35875 2.55249L4.52927 2.55126L4.58322 2.39868C4.59015 2.37895 4.6198 2.37895 4.62678 2.39868Z" fill="#F5F5F5"/>
<path d="M4.62678 3.19753L4.68073 3.35011L4.85125 3.35133C4.87334 3.35152 4.88248 3.37807 4.86472 3.39044L4.72755 3.486L4.77901 3.63933C4.78569 3.65918 4.7617 3.67563 4.74372 3.6635L4.605 3.56997L4.46628 3.6635C4.4483 3.67561 4.42437 3.65918 4.43099 3.63933L4.48245 3.486L4.34528 3.39044C4.32752 3.37805 4.33666 3.35152 4.35875 3.35133L4.52927 3.35011L4.58322 3.19753C4.59015 3.17777 4.6198 3.17777 4.62678 3.19753Z" fill="#F5F5F5"/>
<path d="M4.62678 3.9954L4.68073 4.14798L4.85125 4.14921C4.87334 4.14939 4.88248 4.17595 4.86472 4.18831L4.72755 4.28387L4.77901 4.43721C4.78569 4.45705 4.7617 4.4735 4.74372 4.46137L4.605 4.36784L4.46628 4.46137C4.4483 4.47348 4.42437 4.45705 4.43099 4.43721L4.48245 4.28387L4.34528 4.18831C4.32752 4.17592 4.33666 4.14939 4.35875 4.14921L4.52927 4.14798L4.58322 3.9954C4.59015 3.97561 4.6198 3.97561 4.62678 3.9954Z" fill="#F5F5F5"/>
<path d="M5.28303 1.19556L5.33698 1.34814L5.5075 1.34936C5.52959 1.34954 5.53873 1.3761 5.52097 1.38847L5.3838 1.48403L5.43526 1.63736C5.44194 1.6572 5.41795 1.67366 5.39997 1.66153L5.26125 1.568L5.12253 1.66153C5.10455 1.67363 5.08062 1.6572 5.08724 1.63736L5.1387 1.48403L5.00153 1.38847C4.98377 1.37608 4.99291 1.34954 5.015 1.34936L5.18552 1.34814L5.23947 1.19556C5.24643 1.17582 5.27607 1.17582 5.28303 1.19556Z" fill="#F5F5F5"/>
<path d="M5.28303 1.99245L5.33698 2.14503L5.5075 2.14626C5.52959 2.14644 5.53873 2.173 5.52097 2.18536L5.3838 2.28092L5.43526 2.43426C5.44194 2.4541 5.41795 2.47055 5.39997 2.45842L5.26125 2.36489L5.12253 2.45842C5.10455 2.47053 5.08062 2.45412 5.08724 2.43426L5.1387 2.28092L5.00153 2.18536C4.98377 2.17297 4.99291 2.14644 5.015 2.14626L5.18552 2.14503L5.23947 1.99245C5.24643 1.97269 5.27607 1.97269 5.28303 1.99245Z" fill="#F5F5F5"/>
<path d="M5.28303 2.79128L5.33698 2.94386L5.5075 2.94508C5.52959 2.94527 5.53873 2.97182 5.52097 2.98419L5.3838 3.07975L5.43526 3.23308C5.44194 3.25293 5.41795 3.26938 5.39997 3.25725L5.26125 3.16372L5.12253 3.25725C5.10455 3.26936 5.08062 3.25293 5.08724 3.23308L5.1387 3.07975L5.00153 2.98419C4.98377 2.9718 4.99291 2.94527 5.015 2.94508L5.18552 2.94386L5.23947 2.79128C5.24643 2.77152 5.27607 2.77152 5.28303 2.79128Z" fill="#F5F5F5"/>
<path d="M5.28303 3.58814L5.33698 3.74072L5.5075 3.74194C5.52959 3.74212 5.53873 3.76868 5.52097 3.78105L5.3838 3.87661L5.43526 4.02994C5.44194 4.04978 5.41795 4.06624 5.39997 4.0541L5.26125 3.96058L5.12253 4.0541C5.10455 4.06621 5.08062 4.04978 5.08724 4.02994L5.1387 3.87661L5.00153 3.78105C4.98377 3.76865 4.99291 3.74212 5.015 3.74194L5.18552 3.74072L5.23947 3.58814C5.24643 3.5684 5.27607 3.5684 5.28303 3.58814Z" fill="#F5F5F5"/>
<path d="M5.93928 0.802023L5.99323 0.954603L6.16375 0.955826C6.18584 0.956009 6.19498 0.982567 6.17722 0.994935L6.04005 1.09049L6.09151 1.24383C6.09819 1.26367 6.0742 1.28012 6.05622 1.26799L5.9175 1.17446L5.77878 1.26799C5.7608 1.2801 5.73687 1.26367 5.74349 1.24383L5.79495 1.09049L5.65778 0.994935C5.64002 0.982541 5.64916 0.956009 5.67125 0.955826L5.84177 0.954603L5.89572 0.802023C5.90268 0.78226 5.93227 0.78226 5.93928 0.802023Z" fill="#F5F5F5"/>
<path d="M5.93928 1.60083L5.99323 1.75341L6.16375 1.75463C6.18584 1.75482 6.19498 1.78138 6.17722 1.79374L6.04005 1.8893L6.09151 2.04264C6.09819 2.06248 6.0742 2.07893 6.05622 2.0668L5.9175 1.97327L5.77878 2.0668C5.7608 2.07891 5.73687 2.06248 5.74349 2.04264L5.79495 1.8893L5.65778 1.79374C5.64002 1.78135 5.64916 1.75482 5.67125 1.75463L5.84177 1.75341L5.89572 1.60083C5.90268 1.58109 5.93227 1.58109 5.93928 1.60083Z" fill="#F5F5F5"/>
<path d="M5.93928 2.39868L5.99323 2.55126L6.16375 2.55249C6.18584 2.55267 6.19498 2.57923 6.17722 2.5916L6.04005 2.68715L6.09151 2.84049C6.09819 2.86033 6.0742 2.87678 6.05622 2.86465L5.9175 2.77112L5.77878 2.86465C5.7608 2.87676 5.73687 2.86033 5.74349 2.84049L5.79495 2.68715L5.65778 2.5916C5.64002 2.5792 5.64916 2.55267 5.67125 2.55249L5.84177 2.55126L5.89572 2.39868C5.90268 2.37895 5.93227 2.37895 5.93928 2.39868Z" fill="#F5F5F5"/>
<path d="M5.93928 3.19753L5.99323 3.35011L6.16375 3.35133C6.18584 3.35152 6.19498 3.37807 6.17722 3.39044L6.04005 3.486L6.09151 3.63933C6.09819 3.65918 6.0742 3.67563 6.05622 3.6635L5.9175 3.56997L5.77878 3.6635C5.7608 3.67561 5.73687 3.65918 5.74349 3.63933L5.79495 3.486L5.65778 3.39044C5.64002 3.37805 5.64916 3.35152 5.67125 3.35133L5.84177 3.35011L5.89572 3.19753C5.90268 3.17777 5.93227 3.17777 5.93928 3.19753Z" fill="#F5F5F5"/>
<path d="M5.93928 3.9954L5.99323 4.14798L6.16375 4.14921C6.18584 4.14939 6.19498 4.17595 6.17722 4.18831L6.04005 4.28387L6.09151 4.43721C6.09819 4.45705 6.0742 4.4735 6.05622 4.46137L5.9175 4.36784L5.77878 4.46137C5.7608 4.47348 5.73687 4.45705 5.74349 4.43721L5.79495 4.28387L5.65778 4.18831C5.64002 4.17592 5.64916 4.14939 5.67125 4.14921L5.84177 4.14798L5.89572 3.9954C5.90268 3.97561 5.93227 3.97561 5.93928 3.9954Z" fill="#F5F5F5"/>
</svg>
