<svg width="24" height="24" viewBox="0 0 24 24" fill="none" xmlns="http://www.w3.org/2000/svg">
<path d="M12 21C16.9706 21 21 16.9706 21 12C21 7.02944 16.9706 3 12 3C7.02944 3 3 7.02944 3 12C3 16.9706 7.02944 21 12 21Z" fill="#EB5757"/>
<path d="M9.72 15C9.65333 15 9.59667 14.98 9.55 14.94C9.51 14.8933 9.49 14.8367 9.49 14.77V14.47C9.49 14.3167 9.57333 14.17 9.74 14.03L11.92 11.86C12.4133 11.44 12.7533 11.0967 12.94 10.83C13.1267 10.5633 13.22 10.28 13.22 9.98C13.22 9.58667 13.11 9.28 12.89 9.06C12.67 8.83333 12.35 8.72 11.93 8.72C11.53 8.72 11.2133 8.83667 10.98 9.07C10.7467 9.30333 10.6033 9.61667 10.55 10.01C10.5367 10.0833 10.5033 10.14 10.45 10.18C10.3967 10.22 10.3433 10.24 10.29 10.24H9.81C9.75 10.24 9.7 10.22 9.66 10.18C9.62 10.14 9.6 10.0933 9.6 10.04C9.61333 9.68667 9.70667 9.34667 9.88 9.02C10.06 8.68667 10.3233 8.41667 10.67 8.21C11.0167 7.99667 11.4367 7.89 11.93 7.89C12.6767 7.89 13.2367 8.08667 13.61 8.48C13.99 8.86667 14.18 9.36 14.18 9.96C14.18 10.38 14.0767 10.76 13.87 11.1C13.67 11.4333 13.3533 11.7867 12.92 12.16L10.95 14.16H14.1C14.1733 14.16 14.23 14.18 14.27 14.22C14.31 14.26 14.33 14.3167 14.33 14.39V14.77C14.33 14.8367 14.3067 14.8933 14.26 14.94C14.22 14.98 14.1667 15 14.1 15H9.72Z" fill="white"/>
</svg>
