<svg width="32" height="32" viewBox="0 0 32 32" fill="none" xmlns="http://www.w3.org/2000/svg">
<ellipse cx="15.9621" cy="16" rx="15.9621" ry="16" fill="#7CAB5B"/>
<path d="M31.202 16C31.202 24.4393 24.3773 31.2778 15.9621 31.2778C7.54694 31.2778 0.72218 24.4393 0.72218 16C0.72218 7.56068 7.54694 0.72218 15.9621 0.72218C24.3773 0.72218 31.202 7.56068 31.202 16Z" stroke="#285017" stroke-opacity="0.2" stroke-width="1.44436"/>
<path d="M8.79549 20C8.71549 20 8.64749 19.972 8.59149 19.916C8.53549 19.86 8.50749 19.792 8.50749 19.712V11.9C8.50749 11.812 8.53149 11.74 8.57949 11.684C8.63549 11.628 8.70749 11.6 8.79549 11.6H11.7235C14.0835 11.6 15.2875 12.688 15.3355 14.864C15.3515 15.328 15.3595 15.64 15.3595 15.8C15.3595 15.952 15.3515 16.26 15.3355 16.724C15.3035 17.844 14.9995 18.672 14.4235 19.208C13.8555 19.736 12.9755 20 11.7835 20H8.79549ZM11.7235 18.608C12.3875 18.608 12.8675 18.46 13.1635 18.164C13.4595 17.868 13.6155 17.376 13.6315 16.688C13.6475 16.208 13.6555 15.908 13.6555 15.788C13.6555 15.66 13.6475 15.364 13.6315 14.9C13.6155 14.244 13.4515 13.764 13.1395 13.46C12.8275 13.148 12.3355 12.992 11.6635 12.992H10.1995V18.608H11.7235ZM20.185 20.12C19.089 20.12 18.237 19.844 17.629 19.292C17.021 18.74 16.701 17.92 16.669 16.832C16.661 16.6 16.657 16.26 16.657 15.812C16.657 15.356 16.661 15.012 16.669 14.78C16.701 13.716 17.029 12.9 17.653 12.332C18.277 11.764 19.121 11.48 20.185 11.48C21.241 11.48 22.081 11.764 22.705 12.332C23.337 12.9 23.669 13.716 23.701 14.78C23.717 15.244 23.725 15.588 23.725 15.812C23.725 16.028 23.717 16.368 23.701 16.832C23.669 17.92 23.345 18.74 22.729 19.292C22.121 19.844 21.273 20.12 20.185 20.12ZM20.185 18.728C20.721 18.728 21.145 18.568 21.457 18.248C21.769 17.928 21.937 17.436 21.961 16.772C21.977 16.292 21.985 15.968 21.985 15.8C21.985 15.616 21.977 15.292 21.961 14.828C21.937 14.172 21.765 13.684 21.445 13.364C21.125 13.036 20.705 12.872 20.185 12.872C19.657 12.872 19.233 13.036 18.913 13.364C18.593 13.684 18.425 14.172 18.409 14.828C18.401 15.06 18.397 15.384 18.397 15.8C18.397 16.208 18.401 16.532 18.409 16.772C18.425 17.428 18.589 17.92 18.901 18.248C19.221 18.568 19.649 18.728 20.185 18.728Z" fill="#285017" fill-opacity="0.5"/>
</svg>
