<svg width="24" height="24" viewBox="0 0 24 24" fill="none" xmlns="http://www.w3.org/2000/svg">
<path d="M12 21C16.9706 21 21 16.9706 21 12C21 7.02944 16.9706 3 12 3C7.02944 3 3 7.02944 3 12C3 16.9706 7.02944 21 12 21Z" fill="white"/>
<path d="M13.7988 15.6003H13.1988C12.8806 15.6003 12.5753 15.4739 12.3503 15.2488C12.1253 15.0238 11.9988 14.7186 11.9988 14.4003V11.4003C11.9988 11.2412 11.9356 11.0886 11.8231 10.976C11.7106 10.8635 11.558 10.8003 11.3988 10.8003H10.7988" stroke="#212B36" stroke-linecap="round" stroke-linejoin="round"/>
<path d="M11.6994 7.80029C11.6401 7.80029 11.5821 7.81789 11.5327 7.85085C11.4834 7.88382 11.445 7.93067 11.4223 7.98549C11.3995 8.04031 11.3936 8.10063 11.4052 8.15882C11.4168 8.21701 11.4453 8.27047 11.4873 8.31242C11.5292 8.35438 11.5827 8.38295 11.6409 8.39453C11.6991 8.4061 11.7594 8.40016 11.8142 8.37746C11.869 8.35475 11.9159 8.3163 11.9489 8.26696C11.9818 8.21763 11.9994 8.15963 11.9994 8.10029C11.9994 8.02073 11.9678 7.94442 11.9115 7.88816C11.8553 7.8319 11.779 7.80029 11.6994 7.80029Z" stroke="#212B36" stroke-linecap="round" stroke-linejoin="round"/>
</svg>
