<svg width="16" height="16" viewBox="0 0 16 16" fill="none" xmlns="http://www.w3.org/2000/svg">
<circle cx="8" cy="8" r="8" fill="#EB5757"/>
<path d="M8.256 11.11C7.684 11.11 7.189 11.0183 6.771 10.835C6.353 10.6443 6.034 10.3987 5.814 10.098C5.60133 9.79733 5.48767 9.48567 5.473 9.163C5.473 9.097 5.495 9.04567 5.539 9.009C5.583 8.965 5.638 8.943 5.704 8.943H6.199C6.27967 8.943 6.34567 8.96133 6.397 8.998C6.44833 9.02733 6.48867 9.08967 6.518 9.185C6.61333 9.559 6.81867 9.823 7.134 9.977C7.45667 10.131 7.83433 10.208 8.267 10.208C8.795 10.208 9.213 10.0833 9.521 9.834C9.83633 9.57733 9.994 9.21433 9.994 8.745C9.994 7.85033 9.44767 7.403 8.355 7.403H7.321C7.24767 7.403 7.18533 7.381 7.134 7.337C7.09 7.28567 7.068 7.22333 7.068 7.15V6.864C7.068 6.754 7.10833 6.65867 7.189 6.578L9.334 4.202H6.078C6.00467 4.202 5.94233 4.18 5.891 4.136C5.847 4.092 5.825 4.03333 5.825 3.96V3.564C5.825 3.48333 5.847 3.421 5.891 3.377C5.94233 3.32567 6.00467 3.3 6.078 3.3H10.434C10.5147 3.3 10.577 3.32567 10.621 3.377C10.6723 3.421 10.698 3.48333 10.698 3.564V3.927C10.698 4.00767 10.6613 4.092 10.588 4.18L8.443 6.589H8.619C9.367 6.611 9.95733 6.80533 10.39 7.172C10.83 7.53867 11.05 8.074 11.05 8.778C11.05 9.262 10.929 9.68 10.687 10.032C10.4523 10.3767 10.1223 10.6443 9.697 10.835C9.27167 11.0183 8.79133 11.11 8.256 11.11Z" fill="white"/>
</svg>
