<svg width="32" height="32" viewBox="0 0 32 32" fill="none" xmlns="http://www.w3.org/2000/svg">
<g id="Iconly/Bold/Lock">
<rect width="32" height="32" rx="16" fill="#F1C34E"/>
<g id="Filter">
<path id="Filter_2" fill-rule="evenodd" clip-rule="evenodd" d="M13.5022 11.7028C13.5022 13.1962 12.2711 14.4066 10.7511 14.4066C9.23199 14.4066 8 13.1962 8 11.7028C8 10.2104 9.23199 9 10.7511 9C12.2711 9 13.5022 10.2104 13.5022 11.7028ZM22.7948 10.5187C23.4596 10.5187 24.0001 11.0496 24.0001 11.7029C24.0001 12.3569 23.4596 12.8879 22.7948 12.8879H17.5343C16.8686 12.8879 16.3281 12.3569 16.3281 11.7029C16.3281 11.0496 16.8686 10.5187 17.5343 10.5187H22.7948ZM9.20622 19.3663H14.4666C15.1324 19.3663 15.6728 19.8973 15.6728 20.5514C15.6728 21.2046 15.1324 21.7364 14.4666 21.7364H9.20622C8.54044 21.7364 8 21.2046 8 20.5514C8 19.8973 8.54044 19.3663 9.20622 19.3663ZM21.2494 23.2221C22.7694 23.2221 24.0005 22.0117 24.0005 20.5193C24.0005 19.0259 22.7694 17.8155 21.2494 17.8155C19.7303 17.8155 18.4983 19.0259 18.4983 20.5193C18.4983 22.0117 19.7303 23.2221 21.2494 23.2221Z" fill="black"/>
</g>
</g>
</svg>
