<svg width="24" height="24" viewBox="0 0 24 24" fill="none" xmlns="http://www.w3.org/2000/svg">
<path d="M21.5511 9.95052L12.4944 3.11719L3.4294 9.95052C3.242 10.1235 3.12931 10.3626 3.11523 10.6172V21.0522C3.11589 21.2681 3.20197 21.4751 3.35467 21.6278C3.50737 21.7805 3.71429 21.8665 3.93023 21.8672H9.36523V17.4947C9.36523 16.6659 9.69447 15.871 10.2805 15.285C10.8666 14.6989 11.6614 14.3697 12.4902 14.3697C13.319 14.3697 14.1139 14.6989 14.6999 15.285C15.286 15.871 15.6152 16.6659 15.6152 17.4947V21.8697H21.0494C21.2654 21.869 21.4724 21.783 21.6253 21.6303C21.7781 21.4776 21.8644 21.2707 21.8652 21.0547V10.6172C21.8508 10.3627 21.7382 10.1237 21.5511 9.95052Z" fill="#979797"/>
</svg>
