<svg width="32" height="32" viewBox="0 0 32 32" fill="none" xmlns="http://www.w3.org/2000/svg">
<g id="Iconly/Bold/Lock">
<rect width="32" height="32" rx="16" fill="#F1C34E"/>
<g id="Lock">
<path id="Lock_2" fill-rule="evenodd" clip-rule="evenodd" d="M20.2183 12.3166V13.5433C21.5962 13.9734 22.6002 15.2207 22.6002 16.7106V20.6601C22.6002 22.5045 21.0711 23.9998 19.1859 23.9998H12.4152C10.5292 23.9998 9.00016 22.5045 9.00016 20.6601V16.7106C9.00016 15.2207 10.0049 13.9734 11.382 13.5433V12.3166C11.3901 9.93166 13.3655 7.99983 15.788 7.99983C18.243 7.99983 20.2183 9.93166 20.2183 12.3166ZM15.804 9.39143C17.4542 9.39143 18.7955 10.7032 18.7955 12.317V13.3712H12.8044V12.3011C12.8125 10.6952 14.1538 9.39143 15.804 9.39143ZM16.5114 19.5637C16.5114 19.9532 16.1943 20.2632 15.796 20.2632C15.4058 20.2632 15.0888 19.9532 15.0888 19.5637V17.7988C15.0888 17.4172 15.4058 17.1071 15.796 17.1071C16.1943 17.1071 16.5114 17.4172 16.5114 17.7988V19.5637Z" fill="black"/>
</g>
</g>
</svg>
