<svg width="24" height="24" viewBox="0 0 24 24" fill="none" xmlns="http://www.w3.org/2000/svg">
<path d="M12 4.00021C7.58892 4.00021 4 7.58913 4 12.0002C4 16.4113 7.58892 20.0002 12 20.0002C16.4111 20.0002 20 16.4113 20 12.0002C20 7.58913 16.4111 4.00021 12 4.00021ZM14.6476 15.8291C14.4799 15.9969 14.2601 16.0808 14.0403 16.0808C13.8205 16.0808 13.6007 15.9969 13.4329 15.8291L11.624 14.0829C11.3069 13.7658 11.0693 13.3438 11.0693 12.8949V8.08076C11.0693 7.60634 11.4696 7.22171 11.944 7.22171C12.4184 7.22171 12.8187 7.60634 12.8187 8.08076V12.8949L14.6007 14.6143C14.9362 14.9499 14.9832 15.4935 14.6476 15.8291Z" fill="#979797"/>
</svg>
