<svg width="24" height="24" viewBox="0 0 24 24" fill="none" xmlns="http://www.w3.org/2000/svg">
<rect x="4" y="4" width="16" height="16" rx="3" fill="#979797"/>
<path d="M13.6339 15.1122C13.3065 15.3741 12.8216 15.141 12.8216 14.7218V13.8216H9.91078C9.65345 13.8216 9.40666 13.9238 9.2247 14.1057C9.04274 14.2877 8.94052 14.5345 8.94052 14.7918V15.9233C8.94052 16.295 8.55927 16.5159 8.27267 16.2792C7.71135 15.8157 7 14.9965 7 13.8216V11.881C7 11.3664 7.20445 10.8728 7.56836 10.5089C7.93228 10.145 8.42586 9.94052 8.94052 9.94052H12.8216V9.04031C12.8216 8.62106 13.3065 8.38797 13.6339 8.64988L17.6729 11.881L13.6339 15.1122Z" fill="#F6F6F7"/>
</svg>
