<svg width="24" height="24" viewBox="0 0 24 24" fill="none" xmlns="http://www.w3.org/2000/svg">
<rect x="0.000305176" y="-0.000329971" width="23.1097" height="23.1097" rx="4" fill="white"/>
<path d="M10.9656 5.19714C11.0962 5.34206 11.2557 5.45793 11.4339 5.53725C11.6121 5.61656 11.805 5.65754 12 5.65754C12.1951 5.65754 12.388 5.61656 12.5662 5.53725C12.7444 5.45793 12.9039 5.34206 13.0345 5.19714L13.7075 4.45867C13.9004 4.2452 14.1546 4.09665 14.4353 4.03342C14.716 3.97019 15.0093 3.99536 15.2751 4.1055C15.5409 4.21564 15.7661 4.40533 15.9198 4.64855C16.0735 4.89177 16.1481 5.1766 16.1335 5.46393L16.083 6.45994C16.0732 6.65424 16.1043 6.84843 16.1741 7.03001C16.2439 7.21158 16.351 7.37651 16.4885 7.51417C16.626 7.65184 16.7907 7.75918 16.9722 7.82929C17.1537 7.8994 17.3478 7.93072 17.5421 7.92124L18.5382 7.87072C18.8253 7.85657 19.1098 7.93156 19.3527 8.08543C19.5955 8.23929 19.7849 8.4645 19.8947 8.73019C20.0046 8.99587 20.0296 9.28903 19.9663 9.56948C19.903 9.84993 19.7546 10.1039 19.5413 10.2967L18.8 10.9655C18.6552 11.0962 18.5395 11.2559 18.4603 11.4341C18.3811 11.6123 18.3402 11.8052 18.3402 12.0003C18.3402 12.1953 18.3811 12.3882 18.4603 12.5664C18.5395 12.7447 18.6552 12.9043 18.8 13.035L19.5413 13.7038C19.7548 13.8967 19.9033 14.1509 19.9665 14.4316C20.0298 14.7123 20.0046 15.0056 19.8944 15.2714C19.7843 15.5372 19.5946 15.7624 19.3514 15.9161C19.1082 16.0698 18.8234 16.1444 18.536 16.1298L17.54 16.0793C17.3453 16.0693 17.1506 16.1002 16.9686 16.1702C16.7866 16.2402 16.6213 16.3476 16.4834 16.4854C16.3456 16.6233 16.2382 16.7886 16.1682 16.9706C16.0983 17.1526 16.0673 17.3473 16.0773 17.542L16.1278 18.538C16.1405 18.8239 16.065 19.1068 15.9113 19.3482C15.7577 19.5897 15.5335 19.778 15.2691 19.8875C15.0047 19.9971 14.713 20.0226 14.4337 19.9607C14.1543 19.8987 13.9007 19.7522 13.7075 19.5411L13.038 18.8005C12.9074 18.6558 12.7478 18.5401 12.5696 18.4609C12.3914 18.3817 12.1986 18.3408 12.0036 18.3408C11.8086 18.3408 11.6158 18.3817 11.4376 18.4609C11.2594 18.5401 11.0998 18.6558 10.9692 18.8005L10.2969 19.5411C10.1039 19.7532 9.85029 19.9006 9.57052 19.9633C9.29075 20.0259 8.99847 20.0008 8.73352 19.8912C8.46856 19.7817 8.24384 19.5931 8.08997 19.3512C7.9361 19.1093 7.86059 18.8258 7.87371 18.5394L7.92494 17.5434C7.93495 17.3487 7.90398 17.154 7.83401 16.972C7.76405 16.79 7.65665 16.6247 7.51878 16.4869C7.3809 16.349 7.21562 16.2416 7.03362 16.1716C6.85161 16.1017 6.65695 16.0707 6.46222 16.0807L5.46621 16.1312C5.17899 16.1462 4.89418 16.0719 4.65086 15.9186C4.40755 15.7652 4.21767 15.5403 4.10728 15.2747C3.9969 15.0091 3.97144 14.7159 4.03438 14.4353C4.09732 14.1546 4.24558 13.9004 4.45882 13.7074L5.19942 13.0386C5.34416 12.9079 5.45987 12.7482 5.53906 12.57C5.61825 12.3917 5.65917 12.1989 5.65917 12.0038C5.65917 11.8088 5.61825 11.6159 5.53906 11.4377C5.45987 11.2594 5.34416 11.0998 5.19942 10.969L4.45882 10.2967C4.24628 10.1039 4.09846 9.85019 4.03559 9.57021C3.97271 9.29022 3.99783 8.99765 4.10753 8.73248C4.21722 8.46732 4.40613 8.2425 4.64843 8.08876C4.89073 7.93502 5.1746 7.85987 5.46123 7.87357L6.45724 7.92408C6.65234 7.93434 6.84741 7.90344 7.02979 7.8334C7.21217 7.76336 7.37778 7.65574 7.51585 7.51753C7.65393 7.37931 7.76139 7.2136 7.83126 7.03116C7.90112 6.84871 7.93183 6.65361 7.92138 6.45852L7.87371 5.4618C7.86027 5.17528 7.93556 4.89159 8.08931 4.64944C8.24306 4.40729 8.46778 4.21847 8.7328 4.10876C8.99783 3.99905 9.29025 3.97378 9.57016 4.0364C9.85008 4.09902 10.1039 4.24649 10.2969 4.45867L10.9656 5.19714Z" fill="black"/>
<path d="M11.999 15.2031C13.7671 15.2031 15.2004 13.7697 15.2004 12.0016C15.2004 10.2335 13.7671 8.80012 11.999 8.80012C10.2308 8.80012 8.79749 10.2335 8.79749 12.0016C8.79749 13.7697 10.2308 15.2031 11.999 15.2031Z" fill="black" stroke="white" stroke-width="1.40064" stroke-linecap="round" stroke-linejoin="round"/>
</svg>
