<svg width="24" height="24" viewBox="0 0 24 24" fill="none" xmlns="http://www.w3.org/2000/svg">
<rect x="3.00018" y="2.99957" width="16" height="16" rx="3" fill="#979797"/>
<path d="M14.0002 8.62238C13.9999 8.68237 13.9797 8.74121 13.9416 8.79281C13.9034 8.84441 13.8488 8.8869 13.7834 8.91586C13.717 8.94518 13.6424 8.96018 13.5666 8.95939C13.4909 8.95861 13.4168 8.94206 13.3514 8.91137L11.0002 8.03605L8.62658 8.96146C8.56112 8.98825 8.48827 9.0013 8.41483 8.99939C8.34139 8.99748 8.26975 8.98068 8.20658 8.95054C8.14396 8.921 8.092 8.87887 8.05581 8.82831C8.01962 8.77775 8.00045 8.72051 8.00018 8.6622V2.99957H14.0002V8.62238Z" fill="#F6F6F7"/>
<path d="M16.9998 14.9996H11.5002C11.224 14.9996 11.0002 15.2234 11.0002 15.4996C11.0002 15.7757 11.224 15.9996 11.5002 15.9996H16.9998C17.2759 15.9996 17.4998 15.7757 17.4998 15.4996C17.4998 15.2234 17.2759 14.9996 16.9998 14.9996Z" fill="#F6F6F7"/>
</svg>
