<svg width="24" height="24" viewBox="0 0 24 24" fill="none" xmlns="http://www.w3.org/2000/svg">
<g clip-path="url(#clip0)">
<path d="M4.58974 4.70763L13.5651 7.16303C14.1733 7.35528 14.7044 7.72442 15.0854 8.21952C15.4663 8.71462 15.6783 9.31129 15.692 9.92723V18.2277C15.7176 18.4898 15.6765 18.7539 15.5723 18.9972C15.468 19.2406 15.3037 19.4558 15.0937 19.6243C14.8836 19.7928 14.634 19.9096 14.3665 19.9644C14.0991 20.0193 13.8218 20.0106 13.5585 19.9392L6.13405 17.9963C5.52581 17.8142 4.99249 17.4525 4.6096 16.9625C4.22671 16.4725 4.01365 15.8791 4.00058 15.2661V6.22163C3.9871 5.64795 4.20988 5.09242 4.62032 4.67623C5.03076 4.26004 5.59556 4.01695 6.19149 4H17.5383C18.1912 4 18.8173 4.24962 19.279 4.69396C19.7406 5.13829 20 5.74093 20 6.36931V13.4401C19.9971 13.7596 19.9287 14.0753 19.7988 14.3692C19.6689 14.6632 19.48 14.9296 19.243 15.1531C19.0059 15.3767 18.7253 15.553 18.4173 15.672C18.1093 15.791 17.7799 15.8503 17.448 15.8466H15.692" fill="#979797"/>
<path d="M11.1951 12.7891C11.2665 12.7891 11.3363 12.8102 11.3957 12.8499C11.4551 12.8896 11.5013 12.946 11.5287 13.012C11.556 13.0779 11.5632 13.1506 11.5492 13.2206C11.5353 13.2906 11.5009 13.355 11.4504 13.4055C11.3999 13.456 11.3356 13.4904 11.2655 13.5043C11.1955 13.5182 11.1229 13.5111 11.0569 13.4838C10.9909 13.4564 10.9345 13.4101 10.8948 13.3508C10.8552 13.2914 10.834 13.2216 10.834 13.1502C10.834 13.0544 10.872 12.9625 10.9397 12.8948C11.0075 12.8271 11.0993 12.7891 11.1951 12.7891" stroke="white" stroke-width="1.44436" stroke-linecap="round" stroke-linejoin="round"/>
</g>
<defs>
<clipPath id="clip0">
<rect width="23.1097" height="23.1097" fill="white" transform="translate(0 0.765625)"/>
</clipPath>
</defs>
</svg>
